HIERARCHY
ROOT Pelvis
{
	OFFSET 0.000000 0.000000 0.000000
	CHANNELS 6 Xposition Yposition Zposition Zrotation Yrotation Xrotation 
	JOINT Left_hip
	{
		OFFSET 0.068973 -0.091024 -0.007589
		CHANNELS 3 Zrotation Yrotation Xrotation
		JOINT Left_knee
		{
			OFFSET 0.036482 -0.391037 -0.003979
			CHANNELS 3 Zrotation Yrotation Xrotation
			JOINT Left_ankle
			{
				OFFSET -0.012239 -0.415469 -0.043440
				CHANNELS 3 Zrotation Yrotation Xrotation
				JOINT Left_foot
				{
					OFFSET 0.023806 -0.058558 0.118702
					CHANNELS 3 Zrotation Yrotation Xrotation
					End Site
					{
						OFFSET 0.000000 0.000000 0.000000
					}
				}
			}
		}
	}
	JOINT Right_hip
	{
		OFFSET -0.066552 -0.090468 -0.003847
		CHANNELS 3 Zrotation Yrotation Xrotation
		JOINT Right_knee
		{
			OFFSET -0.042435 -0.398340 -0.006400
			CHANNELS 3 Zrotation Yrotation Xrotation
			JOINT Right_ankle
			{
				OFFSET 0.014931 -0.415421 -0.041327
				CHANNELS 3 Zrotation Yrotation Xrotation
				JOINT Right_foot
				{
					OFFSET -0.021472 -0.049410 0.121889
					CHANNELS 3 Zrotation Yrotation Xrotation
					End Site
					{
						OFFSET 0.000000 0.000000 0.000000
					}
				}
			}
		}
	}
	JOINT Spine1
	{
		OFFSET -0.002904 0.105700 -0.022855
		CHANNELS 3 Zrotation Yrotation Xrotation
		JOINT Spine2
		{
			OFFSET 0.004179 0.132554 -0.002501
			CHANNELS 3 Zrotation Yrotation Xrotation
			JOINT Spine3
			{
				OFFSET 0.001987 0.049603 0.025988
				CHANNELS 3 Zrotation Yrotation Xrotation
				JOINT Neck
				{
					OFFSET -0.003935 0.211336 -0.045638
					CHANNELS 3 Zrotation Yrotation Xrotation
					JOINT Head
					{
						OFFSET 0.003906 0.065991 0.051018
						CHANNELS 3 Zrotation Yrotation Xrotation
						End Site
						{
							OFFSET 0.000000 0.000000 0.000000
						}
					}
				}
				JOINT Left_collar
				{
					OFFSET 0.072882 0.117751 -0.036270
					CHANNELS 3 Zrotation Yrotation Xrotation
					JOINT Left_shoulder
					{
						OFFSET 0.082118 0.032630 -0.005771
						CHANNELS 3 Zrotation Yrotation Xrotation
						JOINT Left_elbow
						{
							OFFSET 0.263305 -0.015144 -0.028095
							CHANNELS 3 Zrotation Yrotation Xrotation
							JOINT Left_wrist
							{
								OFFSET 0.250741 0.010115 -0.000759
								CHANNELS 3 Zrotation Yrotation Xrotation
								JOINT Left_palm
								{
									OFFSET 0.080683 -0.009989 -0.013613
									CHANNELS 3 Zrotation Yrotation Xrotation
									End Site
									{
										OFFSET 0.000000 0.000000 0.000000
									}
								}
							}
						}
					}
				}
				JOINT Right_collar
				{
					OFFSET -0.074811 0.116132 -0.040385
					CHANNELS 3 Zrotation Yrotation Xrotation
					JOINT Right_shoulder
					{
						OFFSET -0.085089 0.032943 -0.007484
						CHANNELS 3 Zrotation Yrotation Xrotation
						JOINT Right_elbow
						{
							OFFSET -0.254763 -0.014219 -0.020321
							CHANNELS 3 Zrotation Yrotation Xrotation
							JOINT Right_wrist
							{
								OFFSET -0.256597 0.009233 -0.005063
								CHANNELS 3 Zrotation Yrotation Xrotation
								JOINT Right_palm
								{
									OFFSET -0.080528 -0.007219 -0.010379
									CHANNELS 3 Zrotation Yrotation Xrotation
									End Site
									{
										OFFSET 0.000000 0.000000 0.000000
									}
								}
							}
						}
					}
				}
			}
		}
	}
}
MOTION
Frames: 10
Frame Time: 0.100000
0.000000 0.000000 0.000000 178.620799 14.804657 -18.950684 11.440955 9.599387 16.026651 -2.163653 8.218237 -4.622990 -5.983403 11.024379 3.614301 3.779362 6.937341 -3.477167 -0.963131 -6.859121 16.070589 4.714518 -7.681255 -4.090771 0.330855 -5.495986 -3.431395 2.744862 -6.600082 5.125090 0.167890 0.209081 -2.151277 -0.030518 -3.721310 13.280196 0.869708 -2.294321 -1.000585 1.137692 7.828931 6.338764 1.108040 -3.820403 -14.734572 -25.508137 -6.462575 10.678032 -48.059200 -1.188432 7.572076 6.122731 -25.835318 13.491031 -15.060543 -16.119713 13.002426 -7.990399 -0.755701 -21.727485 24.366191 11.908120 10.516268 51.609066 -0.357342 11.387690 -6.726248 25.045175 9.866626 5.914466 9.835431 4.663022 8.074405 1.523424 -5.950492 
0.015361 0.000204 0.007066 179.144139 15.001023 -18.705368 11.776752 9.351820 12.362690 -1.181713 9.174945 2.430327 -6.516480 11.197972 2.834958 4.398143 6.820849 -4.534226 -0.437936 -6.870481 16.514839 4.651558 -7.239583 -4.256906 0.495490 -5.775524 -3.978648 1.039345 -6.278430 4.744663 0.495909 0.745211 -0.003638 -0.287226 -3.972515 13.230604 1.064772 -2.158902 -0.528121 -0.454685 8.264508 3.146376 1.313654 -4.354049 -19.012171 -24.762028 -7.627239 11.390962 -49.265672 0.031595 6.621191 6.359494 -27.651601 13.300267 -15.573983 -16.048920 11.999290 -8.359151 -0.915481 -21.555923 23.435655 13.771292 10.895420 51.648394 -0.457630 10.151129 -7.046532 26.495769 9.712771 6.051733 10.020645 4.544083 8.617320 1.435801 -6.041625 
0.019074 -0.000355 0.014006 -179.648005 14.251013 -18.640572 10.392637 7.075495 4.513859 -0.273488 10.552816 18.509804 -5.353425 12.015728 -0.565372 4.914012 7.057370 -5.739056 -0.589961 -6.067582 18.167834 4.099171 -5.590726 -5.571946 -0.664544 -6.348031 -4.131060 1.260546 -5.938193 4.384523 1.025444 2.721260 1.665576 -0.273256 -4.435769 15.220655 0.870611 -1.542634 -1.210674 -1.484175 8.009693 1.118232 2.194767 -4.792717 -22.830353 -25.380323 -8.406244 11.467930 -49.748446 0.523550 6.241456 6.439466 -26.162614 11.575796 -18.359786 -16.381451 12.571956 -8.063273 -0.942365 -20.047073 23.731055 15.582969 11.312670 50.170382 -0.794998 9.117254 -7.354866 26.556482 8.257827 6.770953 11.127931 6.169563 9.143130 1.436888 -5.250778 
0.015341 -0.003218 0.025716 -178.073436 13.034349 -16.917122 7.355404 3.867029 -6.254707 -3.134139 8.528601 29.492016 -5.843232 9.555356 -0.900654 5.720419 6.783733 -7.496722 -1.273346 -5.294479 17.510343 3.208407 -3.975233 -5.592574 -1.449320 -6.882488 -4.068379 1.554685 -5.268119 4.003024 1.502711 4.842422 2.683986 0.070085 -4.354402 16.072591 0.924624 -0.318924 -2.110044 -2.744199 6.862886 -1.008512 3.180616 -4.662882 -23.906521 -25.188652 -7.733326 10.618320 -51.413222 0.850160 7.490302 5.634315 -24.528974 11.438581 -19.720833 -17.427006 13.025026 -7.055256 -0.824981 -16.978746 24.170030 16.205702 11.606073 48.398201 -0.531163 8.536368 -7.404404 24.029457 6.452873 6.959562 12.185507 7.911210 8.683508 1.753002 -4.074996 
0.007264 -0.006877 0.047191 -177.362636 12.482172 -15.290012 4.139390 2.687834 -13.831975 -3.257524 9.760099 24.258320 -4.623099 9.884966 -0.006086 5.281069 6.195726 -5.749900 -1.555643 -5.296082 17.688810 2.166561 -3.548501 -6.024193 -0.737266 -7.138142 -4.036982 1.710771 -4.806439 4.796732 2.122865 6.265854 4.305948 0.230672 -4.405942 15.846357 1.173799 0.706320 -2.633245 -3.764691 5.449995 -3.316196 4.449714 -4.718641 -25.802201 -24.278715 -7.324994 9.720625 -53.137495 2.401975 9.045351 5.050721 -24.323204 11.569104 -20.398752 -17.811559 12.816993 -7.020762 -1.448253 -16.023106 23.771947 16.589291 11.743942 48.251640 -0.428360 8.542708 -7.722741 22.844643 4.701101 6.811362 12.883999 7.524383 8.639742 2.230139 -4.391114 
-0.003646 -0.008550 0.084018 -177.430096 10.771734 -14.571652 1.800845 2.719945 -15.662021 -3.588456 10.003893 8.003573 -3.096581 10.296343 3.159094 4.179307 6.166291 -2.676187 -1.680042 -5.587182 19.345591 1.527833 -2.984637 -5.667891 1.069750 -6.851824 -5.022915 0.775330 -4.217356 5.433370 2.785963 6.974805 5.893032 -0.075520 -4.131225 15.453081 1.411547 1.512605 -2.361351 -4.104168 4.338721 -5.974109 5.875694 -4.919728 -28.267875 -24.011681 -7.839851 9.530289 -54.003611 4.513187 8.705211 5.447867 -23.247015 10.928815 -20.312385 -17.004334 11.972915 -7.131126 -2.040109 -16.718109 23.119893 17.730584 12.309195 48.832083 -0.125983 9.243099 -7.822704 23.938351 4.960217 6.541373 12.831345 7.154844 8.390306 2.505068 -5.504069 
-0.017904 -0.009537 0.138749 -178.072410 7.806080 -14.525229 0.867774 3.626155 -12.563575 -3.688774 8.568228 -7.216582 -1.816413 10.300628 3.907636 2.889675 6.562676 -0.344147 -1.851840 -5.953131 21.069816 0.863975 -2.210352 -2.104716 3.504732 -6.018418 -6.570684 -1.027459 -3.602987 5.439102 2.666885 6.831674 6.004404 -0.471082 -3.845584 14.729638 1.379245 1.807686 -1.463010 -3.654890 4.510447 -4.928449 6.106212 -4.520752 -27.217138 -23.260259 -8.261962 9.639353 -54.500204 5.921035 7.902267 5.452921 -21.414373 10.904397 -19.636493 -15.529810 10.713507 -7.810031 -2.461308 -18.457831 21.876388 18.469631 12.201258 50.616404 1.213525 10.112250 -8.167912 25.178592 5.288365 6.448799 12.275684 5.808462 8.301717 2.436377 -6.610628 
-0.037996 -0.016502 0.210868 -178.370548 3.057041 -14.524879 1.860759 4.522454 -9.086612 -4.083678 11.028660 -8.023015 -0.542582 11.383046 6.987621 2.641901 8.309853 -1.654765 -2.664844 -4.584955 21.069501 -0.133516 -0.920964 5.757768 3.876619 -4.421413 -5.989504 -0.375251 -4.516107 4.076837 1.417979 6.136597 2.836812 -1.341543 -3.224931 14.667856 0.064863 1.530701 -0.495036 -0.082739 3.367071 3.684564 6.519982 -5.375501 -19.676176 -22.113934 -6.069411 9.524600 -53.617197 5.094658 7.657183 6.625775 -19.211404 11.428345 -21.894482 -15.564165 12.007411 -7.742882 -1.852297 -19.769028 19.753659 16.774797 11.337032 53.429603 2.094553 12.922869 -7.499520 31.521475 8.768969 6.350624 13.109481 4.763947 7.909411 1.618049 -6.609496 
-0.060102 -0.041363 0.277983 -177.305327 2.492042 -15.150195 0.766520 2.877142 -6.888689 -4.508280 10.609622 -2.617660 1.742087 10.383941 8.344556 0.912582 11.661681 -4.600052 -5.124953 -2.258993 14.903257 -0.886684 -1.378703 23.491799 4.866436 -3.714591 2.009687 0.641637 -4.863680 0.577250 -1.738775 4.571916 -1.193597 -2.519099 -3.437731 16.705458 -2.578045 -0.036574 -0.114845 2.604530 -0.806794 17.313365 7.158975 -9.098369 -8.547797 -20.234802 -4.870843 8.540034 -51.120824 -0.757616 8.067147 8.842811 -14.684207 8.764172 -26.886119 -15.463100 16.623023 -7.347767 -1.337286 -19.851060 17.673588 14.191106 9.882864 57.105637 1.679129 17.054611 -7.244233 41.291302 12.798599 7.673517 14.816652 6.102813 8.469805 1.307494 -5.767158 
-0.080656 -0.060272 0.331756 -177.923262 1.153427 -16.971104 0.188333 3.466826 -0.565068 -4.289281 9.379382 -3.131409 5.298549 10.495114 6.769816 -1.535150 13.755951 -5.074002 -7.058259 -1.514802 2.515551 -2.653358 -5.874672 47.659457 2.604098 -3.430786 7.899733 6.003386 -7.162475 -0.453323 -3.206220 1.732285 -2.532919 -2.297769 -2.855776 19.348303 -4.773845 -1.180698 -1.256807 2.695663 -5.550950 32.047590 4.549390 -13.040212 3.616671 -19.258043 -4.136942 7.227912 -47.489597 -5.952190 9.290460 11.931658 -19.494243 4.768743 -29.110748 -15.921573 20.786743 -8.411178 -1.534683 -20.244384 16.519414 12.607498 8.907523 56.308832 0.423498 20.584669 -5.150541 55.468063 18.378434 10.704184 17.657966 7.081533 9.126338 1.139323 -4.502474 
